<svg width="256" height="256" viewBox="0 0 256 256" fill="none" xmlns="http://www.w3.org/2000/svg">
<g clip-path="url(#clip0_343_448)">
<rect width="256" height="256" fill="white"/>
<path fill-rule="evenodd" clip-rule="evenodd" d="M0 0H255.822V91.1304L256 162.087L255.822 256H0L0 0Z" fill="url(#paint0_linear_343_448)"/>
<g filter="url(#filter0_d_343_448)">
<path d="M378 -6H-195.894L-197 -2.5974L-195.894 256H310.505L378 -6Z" fill="url(#paint1_linear_343_448)"/>
</g>
<path d="M173.622 124.669C172.879 123.959 172.777 123.554 172.777 121.628C172.777 119.702 172.879 119.296 173.622 118.587L174.433 117.742H187.982H201.566L202.546 118.722C203.39 119.601 203.525 119.972 203.525 121.628C203.525 123.284 203.39 123.655 202.546 124.534L201.566 125.514H187.982H174.433L173.622 124.669Z" fill="white"/>
<path d="M154.329 90.7109C153.078 90.2041 152.504 89.0215 152.504 86.9604C152.504 85.5412 152.673 84.8316 153.213 84.1559L153.889 83.2773H167.743H181.596L182.407 84.1221C183.117 84.7979 183.252 85.2709 183.252 86.9604C183.252 88.616 183.117 89.1566 182.441 89.9338L181.63 90.8799L168.317 90.9475C161.019 90.9812 154.7 90.8799 154.329 90.7109Z" fill="white"/>
<path d="M133.548 55.8068C132.636 55.0973 132.23 53.9822 132.23 52.1914C132.23 50.7047 132.399 50.2992 133.21 49.4545L134.19 48.4746H147.436C163.587 48.4746 162.979 48.3057 162.979 52.5631C162.979 54.2525 162.843 54.7256 162.134 55.4014L161.323 56.2461H147.706C137.535 56.2123 133.954 56.1109 133.548 55.8068Z" fill="white"/>
<path d="M90.6699 207.655C89.048 207.148 87.7303 206.303 86.6152 205.053C84.3852 202.519 84.4189 202.789 84.3176 187.449C84.2162 173.933 84.1824 173.494 83.5404 173.494C82.8984 173.494 82.8984 173.021 82.8984 152.917V132.373L84.4527 132.136C85.3312 132.035 109.795 131.934 138.853 131.934C184.401 131.934 191.699 132.001 191.699 132.407C191.699 132.677 191.429 132.981 191.125 133.049C190.787 133.15 195.112 133.218 200.755 133.251L210.959 133.285L210.891 167.513C210.79 200.559 210.756 201.742 210.148 203.026C209.303 204.715 207.715 206.303 206.026 207.148C204.742 207.79 203.356 207.79 148.111 207.858C116.992 207.891 91.143 207.79 90.6699 207.655ZM105.537 194.545L106.28 193.599L105.199 192.653C104.152 191.706 103.983 191.673 101.313 191.808C99.151 191.875 98.34 192.044 97.7994 192.551C96.9209 193.362 96.8871 193.903 97.7656 194.781C98.34 195.356 98.8807 195.457 101.618 195.457C104.692 195.457 104.828 195.423 105.537 194.545ZM194.335 194.443C195.281 193.565 195.281 193.024 194.369 192.213C193.693 191.605 192.476 191.571 155.41 191.47C134.393 191.436 116.687 191.47 116.079 191.571C115.437 191.706 114.762 192.112 114.457 192.619C113.917 193.396 113.917 193.497 114.66 194.274L115.437 195.119H154.531C193.389 195.119 193.591 195.119 194.335 194.443ZM105.402 183.124C106.112 182.414 106.179 182.212 105.807 181.637C105.165 180.624 104.017 180.252 101.347 180.252C99.3537 180.252 98.7117 180.387 97.9684 180.962C96.8871 181.806 96.8533 182.381 97.8332 183.293C98.4414 183.867 99.0158 183.969 101.55 183.969C104.287 183.969 104.625 183.901 105.402 183.124ZM165.513 182.854C166.56 181.975 166.391 181.13 164.972 180.421C164.161 179.982 160.444 179.914 140.103 179.914C115.099 179.914 115.066 179.914 114.187 181.367C113.883 181.874 113.984 182.144 114.762 182.82L115.708 183.631H140.171H164.634L165.513 182.854ZM105.402 171.636C106.112 170.926 106.179 170.69 105.875 170.115C105.334 169.102 104.152 168.764 101.347 168.764C99.3537 168.764 98.7117 168.899 97.9684 169.473C96.8871 170.318 96.8871 170.69 97.8332 171.703C98.4752 172.413 98.8469 172.48 101.55 172.48C104.287 172.48 104.625 172.413 105.402 171.636ZM150.95 171.433C151.423 171.061 151.828 170.521 151.828 170.284C151.828 170.048 151.423 169.507 150.95 169.135C150.071 168.426 149.733 168.426 132.906 168.426C116.079 168.426 115.741 168.426 114.863 169.135C114.39 169.507 113.984 170.048 113.984 170.284C113.984 170.521 114.39 171.061 114.863 171.433C115.741 172.143 116.079 172.143 132.906 172.143C149.733 172.143 150.071 172.143 150.95 171.433ZM197.308 171.298C197.984 170.622 198.085 170.318 197.781 169.777C197.579 169.406 197.139 168.966 196.768 168.764C195.855 168.291 162.607 168.291 161.526 168.797C161.12 169 160.579 169.439 160.343 169.777C160.039 170.284 160.106 170.554 160.85 171.264L161.728 172.143H179.096H196.463L197.308 171.298ZM104.828 160.485C106.179 159.81 106.348 159.066 105.368 158.086C104.625 157.343 104.287 157.275 101.618 157.275C99.0496 157.275 98.5428 157.377 97.867 158.019C96.8533 158.965 96.8871 159.438 97.9684 160.283C98.7117 160.857 99.3537 160.992 101.381 160.992C102.902 160.992 104.253 160.789 104.828 160.485ZM141.793 160.283C142.198 160.08 142.773 159.641 142.975 159.269C143.347 158.695 143.279 158.492 142.57 157.782L141.725 156.938H128.75C116.113 156.938 115.741 156.971 114.863 157.647C114.39 158.019 113.984 158.559 113.984 158.796C113.984 159.032 114.39 159.573 114.863 159.945C115.741 160.621 116.113 160.654 128.379 160.654C136.623 160.654 141.252 160.519 141.793 160.283ZM104.625 149.132C105.03 148.929 105.605 148.49 105.807 148.119C106.179 147.544 106.112 147.341 105.402 146.632C104.625 145.855 104.287 145.787 101.55 145.787C99.0158 145.787 98.4414 145.888 97.8332 146.463C96.8533 147.375 96.8871 147.95 97.9684 148.794C98.7117 149.369 99.3537 149.504 101.347 149.504C102.699 149.504 104.186 149.335 104.625 149.132ZM164.972 148.659C166.391 147.95 166.56 147.105 165.513 146.226L164.634 145.449H140.036H115.437L114.66 146.294C114.018 146.97 113.917 147.308 114.187 147.747C115.066 149.166 115.201 149.166 140.103 149.166C160.444 149.166 164.161 149.098 164.972 148.659ZM191.429 148.186L192.51 147.24L191.598 146.328L190.719 145.449H183.455C176.393 145.449 176.156 145.483 175.312 146.226C174.264 147.105 174.433 147.916 175.785 148.659C176.46 149.031 178.217 149.132 183.488 149.166H190.348L191.429 148.186Z" fill="#A6E7F0"/>
<path d="M64.382 139.131C64.3145 138.793 62.6926 138.691 57.4553 138.691C50.765 138.691 50.5623 138.658 48.8391 137.813C47.8592 137.34 46.6428 136.394 46.0684 135.718C43.9397 133.15 44.041 134.772 44.041 97.7391V64.0176H107.396H170.75V69.7617C170.75 74.6273 170.818 75.5059 171.257 75.5059C171.527 75.5059 171.764 75.7424 171.764 76.0127C171.764 76.452 165.58 76.5195 121.148 76.5871C82.4254 76.6547 70.4303 76.7898 70.0586 77.0939C66.2742 80.1688 65.4633 81.3852 65.1254 84.6627C65.024 85.8453 64.8213 98.6852 64.6861 113.181C64.551 127.676 64.4158 139.333 64.382 139.131Z" fill="#A6E7F0"/>
<path d="M113.748 195.389C113.376 194.95 112.937 194.274 112.836 193.869C112.531 192.855 113.478 191.132 114.525 190.727C115.066 190.524 130.44 190.389 154.633 190.389C185.617 190.389 194.064 190.49 194.74 190.828C196.531 191.74 196.835 194.072 195.348 195.457C194.605 196.133 194.335 196.133 154.531 196.133H114.424L113.748 195.389Z" fill="#14B4B7"/>
<path d="M113.782 183.834C112.565 182.82 112.464 180.928 113.579 179.813L114.356 179.069L139.428 178.968C153.213 178.934 164.837 178.968 165.276 179.069C167.439 179.61 168.182 182.617 166.493 183.935C165.614 184.645 165.378 184.645 140.137 184.645H114.694L113.782 183.834Z" fill="#14B4B7"/>
<path d="M70.9709 173.122C70.2613 172.954 69.2814 172.616 68.7746 172.345C67.2879 171.568 65.0916 168.966 64.6861 167.547C64.4496 166.703 64.3144 161.195 64.3144 152.477C64.3144 143.523 64.2131 138.691 63.9766 138.691C63.6049 138.691 63.5035 99.5975 63.8414 98.2459L64.0441 97.4688H117.904C164.33 97.4688 171.764 97.5363 171.764 97.9418C171.764 98.2121 171.493 98.5162 171.189 98.5838C170.851 98.6852 175.109 98.7527 180.65 98.7865L190.686 98.8203V104.564C190.686 108.18 190.821 110.309 191.023 110.309C191.226 110.309 191.361 110.444 191.361 110.646C191.361 110.849 173.96 111.018 141.59 111.052C86.4801 111.153 90.9064 110.984 88.1695 113.35C85.6353 115.58 85.4326 116.323 85.3312 124.601L85.2299 131.934H86.0746C86.6152 131.934 86.9531 132.136 86.9531 132.407C86.9531 132.88 85.9732 133.285 84.6892 133.285H83.9121V153.39V173.494L78.1004 173.46C74.8904 173.427 71.6805 173.291 70.9709 173.122Z" fill="#14B4B7"/>
<path d="M113.782 172.345C113.072 171.737 112.836 171.264 112.836 170.284C112.836 169.304 113.072 168.831 113.782 168.223L114.694 167.412H132.94H151.22L152.2 168.392C152.774 169 153.18 169.744 153.18 170.284C153.18 170.825 152.774 171.568 152.2 172.176L151.22 173.156H132.94H114.694L113.782 172.345Z" fill="#14B4B7"/>
<path d="M159.802 172.278C158.383 170.825 158.687 168.764 160.512 167.818C161.053 167.513 166.222 167.412 179.366 167.412H197.477L198.288 168.257C198.863 168.797 199.133 169.439 199.133 170.284C199.133 171.129 198.863 171.771 198.288 172.312L197.477 173.156H179.096H160.715L159.802 172.278Z" fill="#14B4B7"/>
<path d="M113.782 160.857C113.072 160.249 112.836 159.776 112.836 158.796C112.836 157.816 113.072 157.343 113.782 156.735L114.694 155.924H128.716H142.739L143.55 156.769C144.462 157.681 144.665 159.438 143.955 160.35C142.975 161.6 142.367 161.668 128.379 161.668H114.694L113.782 160.857Z" fill="#14B4B7"/>
<path d="M114.322 149.74C112.565 148.862 112.295 146.733 113.714 145.213L114.424 144.436H140.002C165.378 144.436 165.614 144.436 166.493 145.145C167.371 145.855 167.675 147.341 167.168 148.659C166.56 150.18 166.526 150.18 140.103 150.18C120.776 150.18 114.964 150.078 114.322 149.74Z" fill="#14B4B7"/>
<path d="M174.974 149.774C173.892 149.2 173.453 148.456 173.453 147.105C173.453 146.125 173.656 145.686 174.332 145.145C175.176 144.469 175.649 144.436 183.488 144.436H191.733L192.544 145.28C193.794 146.497 193.693 148.186 192.341 149.301L191.294 150.18H183.488C178.454 150.18 175.413 150.011 174.974 149.774Z" fill="#14B4B7"/>
<path d="M68.4705 76.7223C68.7746 76.4857 69.0449 76.0803 69.0449 75.8437C69.0449 75.5734 69.349 75.5059 69.9572 75.6748C71.1398 75.9451 71.2074 76.0465 70.9709 76.6885C70.8019 77.0264 70.2951 77.1953 69.3152 77.1953C68.0312 77.1615 67.9299 77.1277 68.4705 76.7223Z" fill="#14B4B7"/>
<path d="M92.8662 124.669C92.1229 123.959 92.0215 123.554 92.0215 121.628C92.0215 119.702 92.1229 119.296 92.8662 118.587C93.542 117.877 94.015 117.742 95.7045 117.742C97.3602 117.742 97.9008 117.877 98.6779 118.553C99.5227 119.296 99.624 119.567 99.624 121.628C99.624 123.689 99.5227 123.959 98.6779 124.703C97.9008 125.379 97.3602 125.514 95.7045 125.514C94.015 125.514 93.542 125.379 92.8662 124.669Z" fill="#F9BA38"/>
<path d="M73.5727 90.7447C72.2887 90.2041 71.748 89.0215 71.748 86.8928C71.748 85.2709 71.8832 84.7979 72.5928 84.1221C73.3023 83.3787 73.7078 83.2773 75.6338 83.2773C77.5598 83.2773 77.9652 83.3787 78.6748 84.1221C79.3844 84.7979 79.5195 85.2709 79.5195 86.9604C79.5195 89.7648 78.7086 90.6771 76.1406 90.8799C75.127 90.9813 73.9443 90.9137 73.5727 90.7447Z" fill="#F9BA38"/>
<path d="M52.7924 55.8068C51.8801 55.0973 51.4746 53.9822 51.4746 52.1914C51.4746 50.7047 51.6436 50.2992 52.4545 49.4545C53.2992 48.6436 53.7047 48.4746 55.1914 48.4746C58.3 48.4746 59.2123 49.3869 59.2461 52.4617C59.2461 54.2863 59.1109 54.6918 58.4014 55.4014C57.6918 56.1109 57.2863 56.2461 55.4617 56.2461C54.2791 56.2461 53.0965 56.0434 52.7924 55.8068Z" fill="#F9BA38"/>
<path d="M115.877 124.635C115.099 123.858 114.998 123.453 114.998 121.56C114.998 119.668 115.099 119.296 115.877 118.587C116.62 117.877 117.127 117.742 118.782 117.742C120.539 117.742 120.911 117.844 121.79 118.722C122.634 119.601 122.77 119.972 122.77 121.628C122.77 123.284 122.634 123.655 121.79 124.534C120.911 125.412 120.539 125.514 118.782 125.514C117.059 125.514 116.654 125.379 115.877 124.635Z" fill="#14B4B7"/>
<path d="M96.8871 90.8461C95.4342 90.5082 94.8936 89.4607 94.8936 86.9266C94.8936 84.8654 94.9949 84.4937 95.7045 83.9193C96.8533 82.9732 100.367 83.007 101.618 83.9869C102.395 84.5951 102.496 84.8992 102.496 86.9603C102.496 88.9539 102.395 89.3256 101.651 90.0352C100.84 90.8123 98.5428 91.184 96.8871 90.8461Z" fill="#14B4B7"/>
<path d="M75.4986 55.4352C73.843 53.6781 74.3836 49.5559 76.3772 48.7787C76.884 48.576 78.1342 48.4746 79.1479 48.576C81.682 48.7787 82.2227 49.4883 82.2227 52.5293C82.2227 54.6242 82.1551 54.9283 81.3442 55.5365C80.6346 56.0771 79.9588 56.2461 78.3369 56.2461C76.5799 56.2461 76.1406 56.1109 75.4986 55.4352Z" fill="#14B4B7"/>
<path d="M96.752 195.795C95.299 194.342 95.6031 192.078 97.4277 191.166C97.9346 190.896 99.624 190.727 101.719 190.727C104.929 190.727 105.233 190.794 106.179 191.605C107.463 192.653 107.564 194.241 106.517 195.592C105.841 196.471 105.774 196.471 101.618 196.471C97.9008 196.471 97.3602 196.403 96.752 195.795Z" fill="#EFC570"/>
<path d="M97.056 184.543C95.5018 183.361 95.3666 181.57 96.7182 180.218C97.698 179.272 97.7994 179.238 101.313 179.238C105.943 179.238 107.193 179.846 107.227 182.212C107.227 182.955 106.956 183.597 106.382 184.138C105.605 184.949 105.368 184.982 101.584 184.982C98.982 184.949 97.3939 184.813 97.056 184.543Z" fill="#EFC570"/>
<path d="M96.6168 172.447C95.468 171.095 95.5018 169.98 96.752 168.696L97.7656 167.682L101.854 167.818C105.672 167.919 105.976 167.987 106.585 168.73C107.497 169.845 107.429 171.636 106.382 172.649C105.605 173.46 105.368 173.494 101.516 173.494H97.4953L96.6168 172.447Z" fill="#EFC570"/>
<path d="M96.7182 161.026C95.5017 159.81 95.468 158.661 96.6168 157.309L97.4953 156.262H101.516C105.368 156.262 105.605 156.296 106.382 157.106C107.227 157.917 107.463 159.303 107.024 160.485C106.585 161.6 105.03 162.006 101.313 162.006C97.7994 162.006 97.698 161.972 96.7182 161.026Z" fill="#EFC570"/>
<path d="M96.7182 149.538C95.6707 148.49 95.5018 147.544 96.1438 146.362C96.8871 144.942 97.4277 144.807 101.584 144.773C105.368 144.773 105.605 144.807 106.382 145.618C106.956 146.159 107.227 146.801 107.227 147.544C107.193 149.909 105.943 150.518 101.313 150.518C97.7994 150.518 97.6981 150.484 96.7182 149.538Z" fill="#EFC570"/>
<path d="M104.354 124.669C103.611 123.959 103.51 123.554 103.51 121.628C103.51 119.668 103.611 119.296 104.388 118.587C105.132 117.877 105.638 117.742 107.294 117.742C109.051 117.742 109.423 117.844 110.301 118.722C111.146 119.601 111.281 119.972 111.281 121.628C111.281 123.284 111.146 123.655 110.301 124.534C109.423 125.412 109.085 125.514 107.227 125.514C105.503 125.514 105.03 125.379 104.354 124.669Z" fill="#FC4D0D"/>
<path d="M85.365 90.8123C83.9797 90.542 83.2363 89.1566 83.2363 86.9266C83.2363 85.2709 83.3715 84.7979 84.0811 84.1221C84.7906 83.3787 85.1961 83.2774 87.1221 83.2774C89.048 83.2774 89.4535 83.3787 90.1631 84.1221C90.8727 84.7979 91.0078 85.2709 91.0078 86.9604C91.0078 89.6973 90.1631 90.7447 87.7641 90.8799C86.8518 90.9475 85.7705 90.9137 85.365 90.8123Z" fill="#FC4D0D"/>
<path d="M63.8076 55.1648C62.9967 54.185 62.8953 53.8809 63.0305 52.0563C63.1656 50.4006 63.3346 49.9275 64.1117 49.2518C65.6998 47.9002 69.8896 48.3732 70.5316 49.9951C70.633 50.2992 70.7344 51.4481 70.7344 52.5631C70.7344 54.2525 70.5992 54.7256 69.8896 55.4014C69.1801 56.1109 68.7746 56.2461 66.8824 56.2461C64.8551 56.2461 64.6523 56.1785 63.8076 55.1648Z" fill="#FC4D0D"/>
<path d="M84.3176 124.601C84.419 116.729 84.4527 116.12 85.1623 114.836C86.007 113.214 87.8992 111.457 89.6225 110.68C90.7375 110.173 95.9072 110.14 147.436 110.14H204.032L205.958 111.086C207.039 111.626 208.357 112.606 208.932 113.282C210.756 115.478 210.959 116.729 210.959 125.243V132.947H147.571H84.2162L84.3176 124.601ZM97.6305 123.689C99.5902 122.033 98.3063 118.756 95.7045 118.756C94.2516 118.756 93.0352 120.074 93.0352 121.628C93.0352 124.128 95.7383 125.345 97.6305 123.689ZM109.288 123.52C109.862 122.912 110.268 122.169 110.268 121.628C110.268 120.378 108.578 118.756 107.294 118.756C104.861 118.756 103.611 121.932 105.368 123.655C106.517 124.838 108.004 124.77 109.288 123.52ZM120.776 123.52C121.35 122.912 121.756 122.169 121.756 121.628C121.756 120.378 120.066 118.756 118.782 118.756C116.316 118.756 115.133 121.831 116.89 123.621C118.107 124.804 119.492 124.77 120.776 123.52ZM201.532 123.52C202.106 122.912 202.512 122.169 202.512 121.628C202.512 121.087 202.106 120.344 201.532 119.736L200.552 118.756H187.982H175.447L174.636 119.601C174.061 120.141 173.791 120.783 173.791 121.628C173.791 122.473 174.061 123.115 174.636 123.655L175.447 124.5H187.982H200.552L201.532 123.52Z" fill="#A29590"/>
<path d="M64.0442 90.1365C64.1455 82.7705 64.2469 81.6217 64.7875 80.5742C65.6322 78.9186 67.2879 77.2629 68.876 76.4182L70.2276 75.6748H126.993C181.089 75.6748 183.826 75.7086 185.347 76.283C187.273 77.0264 189.841 79.7295 190.348 81.5203C190.517 82.1961 190.686 86.3184 190.686 90.6434V98.4824H127.297H63.909L64.0442 90.1365ZM77.7625 88.785C79.3844 87.0279 78.1004 84.291 75.6338 84.291C73.3024 84.291 71.9846 86.7576 73.3024 88.616C74.4174 90.2041 76.411 90.2717 77.7625 88.785ZM89.2508 88.8187C90.8727 86.9941 89.5887 84.291 87.1221 84.291C84.6893 84.291 83.4391 86.8928 84.9258 88.785C86.0746 90.2379 87.933 90.2379 89.2508 88.8187ZM100.739 88.9201C101.82 87.9064 101.787 85.9129 100.604 85.0006C99.4889 84.1221 97.7656 84.0883 96.7182 84.933C96.11 85.4061 95.9072 85.9129 95.9072 86.9266C95.9072 89.7311 98.6104 90.8461 100.739 88.9201ZM181.427 88.9201C182.475 87.6699 182.475 86.1832 181.394 85.1357L180.583 84.291H167.743H154.903L154.227 85.1695C153.011 86.7238 153.551 88.9877 155.342 89.6973C155.714 89.8662 161.593 89.9676 168.317 89.9338L180.616 89.8662L181.427 88.9201Z" fill="#A29590"/>
<path d="M44.1086 55.5027C44.21 48.1705 44.2775 47.1568 44.852 45.9742C45.6967 44.2848 47.2848 42.6967 48.9742 41.852C50.2582 41.21 51.6098 41.21 107.396 41.21H164.499L165.884 41.9533C166.628 42.3588 167.777 43.2711 168.385 43.9469C170.412 46.2783 170.547 46.8527 170.682 55.6717L170.818 63.6797H107.429H44.0072L44.1086 55.5027ZM57.3877 54.3877C58.9758 52.8334 58.1986 50.1641 55.9686 49.6234C54.1777 49.1504 52.1504 51.1777 52.6234 52.9686C53.1641 55.1986 55.8334 55.9758 57.3877 54.3877ZM68.876 54.3877C70.2613 53.0361 69.991 50.8398 68.3354 49.9951C67.0176 49.2855 66.1729 49.3531 65.193 50.2654C63.8414 51.4143 63.74 52.8672 64.8213 54.1512C65.9701 55.5365 67.6596 55.6379 68.876 54.3877ZM80.3305 54.5229C81.9861 53.2389 81.2766 50.1303 79.2492 49.6572C77.7963 49.3531 76.5123 49.9951 75.9717 51.3129C74.7891 54.1174 77.8977 56.415 80.3305 54.5229ZM161.12 54.3877C161.965 53.5768 162.201 52.1914 161.762 51.0088C161.221 49.5896 160.242 49.4883 147.436 49.4883H135.204L134.224 50.4682C133.177 51.5156 133.008 52.4617 133.65 53.6443C134.461 55.1986 134.427 55.1986 147.706 55.2324H160.309L161.12 54.3877Z" fill="#A29590"/>
</g>
<defs>
<filter id="filter0_d_343_448" x="-201" y="-6" width="583" height="270" filterUnits="userSpaceOnUse" color-interpolation-filters="sRGB">
<feFlood flood-opacity="0" result="BackgroundImageFix"/>
<feColorMatrix in="SourceAlpha" type="matrix" values="0 0 0 0 0 0 0 0 0 0 0 0 0 0 0 0 0 0 127 0" result="hardAlpha"/>
<feOffset dy="4"/>
<feGaussianBlur stdDeviation="2"/>
<feComposite in2="hardAlpha" operator="out"/>
<feColorMatrix type="matrix" values="0 0 0 0 0 0 0 0 0 0 0 0 0 0 0 0 0 0 0.25 0"/>
<feBlend mode="normal" in2="BackgroundImageFix" result="effect1_dropShadow_343_448"/>
<feBlend mode="normal" in="SourceGraphic" in2="effect1_dropShadow_343_448" result="shape"/>
</filter>
<linearGradient id="paint0_linear_343_448" x1="162.095" y1="405.824" x2="475.362" y2="95.325" gradientUnits="userSpaceOnUse">
<stop stop-color="#FEC754"/>
<stop offset="0.278014" stop-color="#FFDB8E"/>
<stop offset="0.475432" stop-color="#F8D58B"/>
<stop offset="0.640625" stop-color="#FED47C"/>
<stop offset="0.82488" stop-color="#EBD7AD"/>
<stop offset="1" stop-color="#0061FF"/>
<stop offset="1" stop-color="#FEC754"/>
</linearGradient>
<linearGradient id="paint1_linear_343_448" x1="167.081" y1="409.336" x2="410.439" y2="-120.032" gradientUnits="userSpaceOnUse">
<stop stop-color="#14B4B7"/>
<stop offset="0.278014" stop-color="#81C0CA"/>
<stop offset="0.475432" stop-color="#7BBAC4"/>
<stop offset="0.596493" stop-color="#93C9D1"/>
<stop offset="0.82488" stop-color="#B0D8DE"/>
<stop offset="1" stop-color="#0061FF"/>
<stop offset="1" stop-color="#14B4B7"/>
</linearGradient>
<clipPath id="clip0_343_448">
<rect width="256" height="256" fill="white"/>
</clipPath>
</defs>
</svg>
